<svg id="choose_A-Z" data-name="choose A-Z" xmlns="http://www.w3.org/2000/svg" xmlns:xlink="http://www.w3.org/1999/xlink" viewBox="0 0 179.72 46.52"><defs><style>.cls-1{fill:none;}.cls-2{clip-path:url(#clip-path);}.cls-3{fill:#d46893;}.cls-4{fill:#d46792;}.cls-5{fill:#d36691;}.cls-6{fill:#d36590;}.cls-7{fill:#d3648f;}.cls-8{fill:#d2638e;}.cls-9{fill:#d2628d;}.cls-10{fill:#d2628c;}.cls-11{fill:#d2618b;}.cls-12{fill:#d1608a;}.cls-13{fill:#d15f89;}.cls-14{fill:#d15e88;}.cls-15{fill:#d05d87;}.cls-16{fill:#d05c86;}.cls-17{fill:#d05b85;}.cls-18{fill:#cf5a84;}.cls-19{fill:#cf5983;}.cls-20{fill:#cf5882;}.cls-21{fill:#ce5781;}.cls-22{fill:#ce5680;}.cls-23{fill:#ce557f;}.cls-24{fill:#ce557e;}.cls-25{fill:#cd547d;}.cls-26{fill:#cd537c;}.cls-27{fill:#cd527b;}.cls-28{fill:#cc517a;}.cls-29{fill:#cc5079;}.cls-30{fill:#cc4f78;}.cls-31{fill:#cb4e77;}.cls-32{fill:#cb4d76;}.cls-33{fill:#cb4c75;}.cls-34{fill:#ca4b74;}.cls-35{fill:#ca4a73;}.cls-36{fill:#ca4972;}.cls-37{fill:#c94871;}.cls-38{fill:#c94870;}.cls-39{fill:#c9476f;}.cls-40{fill:#c9466e;}.cls-41{fill:#c8456d;}.cls-42{fill:#c8446c;}.cls-43{fill:#c8436b;}.cls-44{fill:#c7426a;}.cls-45{fill:#c74169;}.cls-46{fill:#c74068;}.cls-47{fill:#c63f67;}.cls-48{fill:#c63e66;}.cls-49{fill:#c63d65;}.cls-50{fill:#c53c64;}.cls-51{fill:#c53b63;}.cls-52{fill:#c53b61;}.cls-53{fill:#c53a60;}.cls-54{fill:#c4395f;}.cls-55{fill:#c4385e;}.cls-56{fill:#c4375d;}.cls-57{fill:#c3365c;}.cls-58{fill:#c3355b;}.cls-59{fill:#c3345a;}.cls-60{fill:#c23359;}.cls-61{fill:#c23258;}.cls-62{fill:#c23157;}.cls-63{fill:#c13056;}.cls-64{fill:#c12f55;}.cls-65{fill:#c12e54;}.cls-66{fill:#c12e53;}.cls-67{fill:#c02d52;}.cls-68{fill:#c02c51;}.cls-69{fill:#c02b50;}.cls-70{fill:#bf2a4f;}.cls-71{fill:#bf294e;}.cls-72{fill:#bf284d;}.cls-73{fill:#be274c;}.cls-74{fill:#be264b;}.cls-75{fill:#be254a;}.cls-76{fill:#bd2449;}.cls-77{fill:#bd2348;}.cls-78{fill:#bd2247;}.cls-79{fill:#bc2146;}.cls-80{fill:#bc2145;}.cls-81{fill:#bc2044;}.cls-82{fill:#bc1f43;}.cls-83{fill:#bb1e42;}.cls-84{fill:#bb1d41;}.cls-85{fill:#bb1c40;}.cls-86{fill:#ba1b3f;}.cls-87{fill:#ba1a3e;}.cls-88{fill:#ba193d;}.cls-89{fill:#b9183c;}.cls-90{fill:#b9173b;}.cls-91{fill:#b9163a;}.cls-92{fill:#b81539;}.cls-93{fill:#b81438;}.cls-94{fill:#b81437;}.cls-95{fill:#b81336;}.cls-96{fill:#b71235;}.cls-97{fill:#b71134;}.cls-98{fill:#b71033;}.cls-99{fill:#b60f32;}.cls-100{fill:#b60e31;}.cls-101{fill:#ff0;}.cls-102{fill:#fff;}.cls-103{fill:#ffff1f;}</style><clipPath id="clip-path" transform="translate(-185.53 -1934.83)"><path class="cls-1" d="M218.08,1956.88a12.39,12.39,0,0,0,2.34-6.81,6.41,6.41,0,0,0-.35-1.88s-0.4-1.23-.63-2.19a1.74,1.74,0,0,0-.78-1.07,0.43,0.43,0,0,0-.54.06s-2.45,2.11-5.26,4.15a13.84,13.84,0,0,0-2.68,2.29s0-.61,0-1.66a5.93,5.93,0,0,0-.45-2.13,25.54,25.54,0,0,0-2-2.8,7.19,7.19,0,0,0-4.14-2.34s-2.9-.45-4.51,1.49a8,8,0,0,0-1.55,5.39s0.05,1.37.24,2.63a2.22,2.22,0,0,0,1,1.45s0.29,0.19-.51.16a9.77,9.77,0,0,0-4.42,1s-2,.86-3.75,1.89a14.9,14.9,0,0,1-3.8,1.77s-0.7.21,0,1a21.37,21.37,0,0,0,7.59,4.27s1.64,0.53,2.67.93a13.72,13.72,0,0,1,1.87.79s0.56,0.24.16,0.48a22.89,22.89,0,0,0-2.61,1.45,1,1,0,0,0-.41.76s0.06,0.3-.78.31a2.43,2.43,0,0,0-1.72,1.25,17,17,0,0,0-3.13,7.57s-0.11.53,0.37,0.17a2.29,2.29,0,0,1,2-.23,11,11,0,0,0,6.08.36,5.67,5.67,0,0,0,3.37-3.31s1.34-3.6,4.14-3.28l15.45-11.14Z"/></clipPath></defs><title>ncsc_logo_black</title><g class="cls-2"><polygon class="cls-3" points="3.31 7.22 0 26.02 0 7.22 3.31 7.22"/><polygon class="cls-3" points="3.68 7.22 0 28.08 0 26.02 3.31 7.22 3.68 7.22"/><polygon class="cls-4" points="4.04 7.22 0 30.14 0 28.08 3.68 7.22 4.04 7.22"/><polygon class="cls-5" points="4.4 7.22 0 32.19 0 30.14 4.04 7.22 4.4 7.22"/><polygon class="cls-6" points="4.77 7.22 0 34.25 0 32.19 4.4 7.22 4.77 7.22"/><polygon class="cls-7" points="5.13 7.22 0 36.31 0 34.25 4.77 7.22 5.13 7.22"/><polygon class="cls-8" points="5.49 7.22 0 38.37 0 36.31 5.13 7.22 5.49 7.22"/><polygon class="cls-9" points="5.86 7.22 0 40.43 0 38.37 5.49 7.22 5.86 7.22"/><polygon class="cls-10" points="6.22 7.22 0 42.48 0 40.43 5.86 7.22 6.22 7.22"/><polygon class="cls-11" points="6.58 7.22 0.23 43.24 0 43.2 0 42.48 6.22 7.22 6.58 7.22"/><polygon class="cls-12" points="6.94 7.22 0.58 43.31 0.23 43.24 6.58 7.22 6.94 7.22"/><polygon class="cls-13" points="7.31 7.22 0.93 43.37 0.58 43.31 6.94 7.22 7.31 7.22"/><polygon class="cls-14" points="7.67 7.22 1.29 43.41 1.19 43.41 0.93 43.37 7.31 7.22 7.67 7.22"/><polygon class="cls-15" points="8.03 7.22 1.65 43.41 1.29 43.41 7.67 7.22 8.03 7.22"/><polygon class="cls-16" points="8.4 7.22 2.01 43.41 1.65 43.41 8.03 7.22 8.4 7.22"/><polygon class="cls-17" points="8.76 7.22 2.38 43.41 2.01 43.41 8.4 7.22 8.76 7.22"/><polygon class="cls-18" points="9.12 7.22 2.74 43.41 2.38 43.41 8.76 7.22 9.12 7.22"/><polygon class="cls-19" points="9.48 7.22 3.1 43.41 2.74 43.41 9.12 7.22 9.48 7.22"/><polygon class="cls-20" points="9.85 7.22 3.47 43.41 3.1 43.41 9.48 7.22 9.85 7.22"/><polygon class="cls-21" points="10.21 7.22 3.83 43.41 3.47 43.41 9.85 7.22 10.21 7.22"/><polygon class="cls-22" points="10.57 7.22 4.19 43.41 3.83 43.41 10.21 7.22 10.57 7.22"/><polygon class="cls-23" points="10.94 7.22 4.55 43.41 4.19 43.41 10.57 7.22 10.94 7.22"/><polygon class="cls-24" points="11.3 7.22 4.92 43.41 4.55 43.41 10.94 7.22 11.3 7.22"/><polygon class="cls-25" points="11.66 7.22 5.28 43.41 4.92 43.41 11.3 7.22 11.66 7.22"/><polygon class="cls-26" points="12.03 7.22 5.64 43.41 5.28 43.41 11.66 7.22 12.03 7.22"/><polygon class="cls-27" points="12.39 7.22 6.01 43.41 5.64 43.41 12.03 7.22 12.39 7.22"/><polygon class="cls-28" points="12.75 7.22 6.37 43.41 6.01 43.41 12.39 7.22 12.75 7.22"/><polygon class="cls-29" points="13.11 7.22 6.73 43.41 6.37 43.41 12.75 7.22 13.11 7.22"/><polygon class="cls-30" points="13.48 7.22 7.09 43.41 6.73 43.41 13.11 7.22 13.48 7.22"/><polygon class="cls-31" points="13.84 7.22 7.46 43.41 7.09 43.41 13.48 7.22 13.84 7.22"/><polygon class="cls-32" points="14.2 7.22 7.82 43.41 7.46 43.41 13.84 7.22 14.2 7.22"/><polygon class="cls-33" points="14.57 7.22 8.18 43.41 7.82 43.41 14.2 7.22 14.57 7.22"/><polygon class="cls-34" points="14.93 7.22 8.55 43.41 8.18 43.41 14.57 7.22 14.93 7.22"/><polygon class="cls-35" points="15.29 7.22 8.91 43.41 8.55 43.41 14.93 7.22 15.29 7.22"/><polygon class="cls-36" points="15.65 7.22 9.27 43.41 8.91 43.41 15.29 7.22 15.65 7.22"/><polygon class="cls-37" points="16.02 7.22 9.64 43.41 9.27 43.41 15.65 7.22 16.02 7.22"/><polygon class="cls-38" points="16.38 7.22 10 43.41 9.64 43.41 16.02 7.22 16.38 7.22"/><polygon class="cls-39" points="16.74 7.22 10.36 43.41 10 43.41 16.38 7.22 16.74 7.22"/><polygon class="cls-40" points="17.11 7.22 10.72 43.41 10.36 43.41 16.74 7.22 17.11 7.22"/><polygon class="cls-41" points="17.47 7.22 11.09 43.41 10.72 43.41 17.11 7.22 17.47 7.22"/><polygon class="cls-42" points="17.83 7.22 11.45 43.41 11.09 43.41 17.47 7.22 17.83 7.22"/><polygon class="cls-43" points="18.2 7.22 11.81 43.41 11.45 43.41 17.83 7.22 18.2 7.22"/><polygon class="cls-44" points="18.56 7.22 12.18 43.41 11.81 43.41 18.2 7.22 18.56 7.22"/><polygon class="cls-45" points="18.92 7.22 12.54 43.41 12.18 43.41 18.56 7.22 18.92 7.22"/><polygon class="cls-46" points="19.28 7.22 12.9 43.41 12.54 43.41 18.92 7.22 19.28 7.22"/><polygon class="cls-47" points="19.65 7.22 13.27 43.41 12.9 43.41 19.28 7.22 19.65 7.22"/><polygon class="cls-48" points="20.01 7.22 13.63 43.41 13.27 43.41 19.65 7.22 20.01 7.22"/><polygon class="cls-49" points="20.37 7.22 13.99 43.41 13.63 43.41 20.01 7.22 20.37 7.22"/><polygon class="cls-50" points="20.74 7.22 14.35 43.41 13.99 43.41 20.37 7.22 20.74 7.22"/><polygon class="cls-51" points="21.1 7.22 14.72 43.41 14.35 43.41 20.74 7.22 21.1 7.22"/><polygon class="cls-52" points="21.46 7.22 15.08 43.41 14.72 43.41 21.1 7.22 21.46 7.22"/><polygon class="cls-53" points="21.82 7.22 15.44 43.41 15.08 43.41 21.46 7.22 21.82 7.22"/><polygon class="cls-54" points="22.19 7.22 15.81 43.41 15.44 43.41 21.82 7.22 22.19 7.22"/><polygon class="cls-55" points="22.55 7.22 16.17 43.41 15.81 43.41 22.19 7.22 22.55 7.22"/><polygon class="cls-56" points="22.91 7.22 16.53 43.41 16.17 43.41 22.55 7.22 22.91 7.22"/><polygon class="cls-57" points="23.28 7.22 16.89 43.41 16.53 43.41 22.91 7.22 23.28 7.22"/><polygon class="cls-58" points="23.64 7.22 17.26 43.41 16.89 43.41 23.28 7.22 23.64 7.22"/><polygon class="cls-59" points="24 7.22 17.62 43.41 17.26 43.41 23.64 7.22 24 7.22"/><polygon class="cls-60" points="24.04 7.22 24.36 7.28 17.98 43.41 17.62 43.41 24 7.22 24.04 7.22"/><polygon class="cls-61" points="24.36 7.28 24.71 7.34 18.35 43.41 17.98 43.41 24.36 7.28"/><polygon class="cls-62" points="24.71 7.34 25.06 7.4 18.71 43.41 18.35 43.41 24.71 7.34"/><polygon class="cls-63" points="25.06 7.4 25.41 7.46 19.07 43.41 18.71 43.41 25.06 7.4"/><polygon class="cls-64" points="25.41 7.46 25.76 7.53 19.44 43.41 19.07 43.41 25.41 7.46"/><polygon class="cls-65" points="25.76 7.53 26.12 7.59 19.8 43.41 19.44 43.41 25.76 7.53"/><polygon class="cls-66" points="26.12 7.59 26.47 7.65 20.16 43.41 19.8 43.41 26.12 7.59"/><polygon class="cls-67" points="26.47 7.65 26.82 7.71 20.52 43.41 20.16 43.41 26.47 7.65"/><polygon class="cls-68" points="26.82 7.71 27.17 7.77 20.89 43.41 20.52 43.41 26.82 7.71"/><polygon class="cls-69" points="27.17 7.77 27.52 7.84 21.25 43.41 20.89 43.41 27.17 7.77"/><polygon class="cls-70" points="27.52 7.84 27.88 7.9 21.61 43.41 21.25 43.41 27.52 7.84"/><polygon class="cls-71" points="27.88 7.9 28.23 7.96 21.98 43.41 21.61 43.41 27.88 7.9"/><polygon class="cls-72" points="28.23 7.96 28.58 8.02 22.34 43.41 21.98 43.41 28.23 7.96"/><polygon class="cls-73" points="28.58 8.02 28.93 8.09 22.7 43.41 22.34 43.41 28.58 8.02"/><polygon class="cls-74" points="28.93 8.09 29.28 8.15 23.07 43.41 22.7 43.41 28.93 8.09"/><polygon class="cls-75" points="29.28 8.15 29.64 8.21 23.43 43.41 23.07 43.41 29.28 8.15"/><polygon class="cls-76" points="29.64 8.21 29.99 8.27 23.79 43.41 23.43 43.41 29.64 8.21"/><polygon class="cls-77" points="29.99 8.27 30.34 8.33 24.15 43.41 23.79 43.41 29.99 8.27"/><polygon class="cls-78" points="30.34 8.33 30.69 8.39 24.52 43.41 24.15 43.41 30.34 8.33"/><polygon class="cls-79" points="30.69 8.39 31.04 8.46 24.88 43.41 24.52 43.41 30.69 8.39"/><polygon class="cls-80" points="31.04 8.46 31.4 8.52 25.24 43.41 24.88 43.41 31.04 8.46"/><polygon class="cls-81" points="31.4 8.52 31.75 8.58 25.61 43.41 25.24 43.41 31.4 8.52"/><polygon class="cls-82" points="31.75 8.58 32.1 8.64 25.97 43.41 25.61 43.41 31.75 8.58"/><polygon class="cls-83" points="32.1 8.64 32.45 8.71 26.33 43.41 25.97 43.41 32.1 8.64"/><polygon class="cls-84" points="32.45 8.71 32.8 8.77 26.7 43.41 26.33 43.41 32.45 8.71"/><polygon class="cls-85" points="32.8 8.77 33.16 8.83 27.06 43.41 26.7 43.41 32.8 8.77"/><polygon class="cls-86" points="33.16 8.83 33.51 8.89 27.42 43.41 27.06 43.41 33.16 8.83"/><polygon class="cls-87" points="33.51 8.89 33.86 8.95 27.78 43.41 27.42 43.41 33.51 8.89"/><polygon class="cls-88" points="33.86 8.95 34.21 9.02 28.15 43.41 27.78 43.41 33.86 8.95"/><polygon class="cls-89" points="34.21 9.02 34.56 9.08 28.51 43.41 28.15 43.41 34.21 9.02"/><polygon class="cls-90" points="34.56 9.08 34.92 9.14 28.87 43.41 28.51 43.41 34.56 9.08"/><polygon class="cls-91" points="34.92 9.14 35.27 9.2 29.24 43.41 28.87 43.41 34.92 9.14"/><polygon class="cls-92" points="35.27 9.2 35.62 9.26 29.6 43.41 29.24 43.41 35.27 9.2"/><polygon class="cls-93" points="35.62 9.26 35.77 9.29 35.77 10.44 29.96 43.41 29.6 43.41 35.62 9.26"/><polygon class="cls-94" points="35.77 12.5 30.32 43.41 29.96 43.41 35.77 10.44 35.77 12.5"/><polygon class="cls-95" points="35.77 14.56 30.69 43.41 30.32 43.41 35.77 12.5 35.77 14.56"/><polygon class="cls-96" points="35.77 16.62 31.05 43.41 30.69 43.41 35.77 14.56 35.77 16.62"/><polygon class="cls-97" points="35.77 18.68 31.41 43.41 31.05 43.41 35.77 16.62 35.77 18.68"/><polygon class="cls-98" points="35.77 20.74 31.78 43.41 31.41 43.41 35.77 18.68 35.77 20.74"/><polygon class="cls-99" points="35.77 22.79 32.14 43.41 31.78 43.41 35.77 20.74 35.77 22.79"/><polygon class="cls-100" points="35.77 24.85 32.5 43.41 32.14 43.41 35.77 22.79 35.77 24.85"/><polygon class="cls-100" points="32.5 43.41 35.77 24.85 35.77 43.41 32.5 43.41"/></g><path class="cls-101" d="M229.35,1956.1c-0.5,0-1,0-1.57-.06,0,0-.86-0.06-2-0.19,3-.21,9.45-0.94,10.58-3.29,0,0,1.41-2.24-.39-3.89a4.34,4.34,0,0,0-1.93-.91l-0.59-.13a14.85,14.85,0,0,1-2.42-.7s-1.94-.75-3.19-1.38a3.88,3.88,0,0,0-1.71-.38,4,4,0,0,0-1.15.17,1.22,1.22,0,0,0,.22-0.67c0-.66-0.52-1.37-1.58-2.12h0.13a1.84,1.84,0,0,0,1.72-.69,1.75,1.75,0,0,0-.39-1.64,4.08,4.08,0,0,0,2,.55,4.64,4.64,0,0,0,2.73-1,2.8,2.8,0,0,0-.23,1.56,2.86,2.86,0,0,0,1.25,1.84c-0.47.21-1.44,0.72-1.45,1.44s0.6,1.16,1.89,1.69a21.51,21.51,0,0,0,3.28.91c0.12,0,2.8.47,3.06,3a7,7,0,0,1-.37,2.58S235.9,1956.1,229.35,1956.1Z" transform="translate(-185.53 -1934.83)"/><path class="cls-102" d="M229.59,1940.14a2.78,2.78,0,0,0-.09,1.23,2.89,2.89,0,0,0,1.11,1.79,2.06,2.06,0,0,0-1.33,1.47c0,0.67.63,1.27,2,1.83a21.28,21.28,0,0,0,3.31.91c0.11,0,2.69.45,2.94,2.9a6.78,6.78,0,0,1-.35,2.5,4.2,4.2,0,0,1-1.45,1.59,10.84,10.84,0,0,1-6.36,1.6c-0.5,0-1,0-1.55-.06l-0.47,0c3.29-.33,8.2-1.17,9.2-3.23,0.13-.22,1.38-2.41-0.4-4.06a4.48,4.48,0,0,0-2-1l-0.6-.14a14.75,14.75,0,0,1-2.4-.69s-1.94-.75-3.17-1.37a4,4,0,0,0-1.78-.4,4.12,4.12,0,0,0-.88.09,1.32,1.32,0,0,0,.09-0.46,2.72,2.72,0,0,0-1.31-2,1.69,1.69,0,0,0,1.57-.76,1.55,1.55,0,0,0-.16-1.37,4.14,4.14,0,0,0,1.66.35,4.6,4.6,0,0,0,2.45-.76m0.77-.93h0Zm0,0a4.83,4.83,0,0,1-3.22,1.41,4.07,4.07,0,0,1-2.7-1.08c2.14,2.53.4,2.86-.65,2.86a5.12,5.12,0,0,1-.66,0c3.19,2,1.65,3.15,1.22,3.4a3.89,3.89,0,0,1,1.82-.45,3.77,3.77,0,0,1,1.65.37c1.27,0.64,3.21,1.39,3.21,1.39a19.68,19.68,0,0,0,3,.84,4.22,4.22,0,0,1,1.87.88c1.73,1.59.35,3.73,0.35,3.73-1.42,3-12,3.3-12,3.3,1.73,0.26,3.47.39,3.47,0.39,0.56,0,1.08.06,1.58,0.06,6.74,0,8.08-3.37,8.08-3.37a7,7,0,0,0,.37-2.63c-0.27-2.7-3.17-3.15-3.17-3.15a21.16,21.16,0,0,1-3.25-.9c-3.94-1.63-.2-3-0.2-3a2.64,2.64,0,0,1-.82-4h0Zm-6,6.54-0.1.05,0.1-.05h0Z" transform="translate(-185.53 -1934.83)"/><path class="cls-103" d="M241,1970.43s0.45-2-.78-6.13c0,0-2.42-8.53-14.45-8.81a22.5,22.5,0,0,0-17,8.53s-6.9,9.61-.89,14.45a4.85,4.85,0,0,0,6-.33s1.17-1.1,1.81,0c0,0,.94,3.39,5.49,2.8a14.82,14.82,0,0,0,6.22-2.46,27,27,0,0,1,7.17-3.25S240.43,1973.71,241,1970.43Z" transform="translate(-185.53 -1934.83)"/><ellipse class="cls-102" cx="227.92" cy="1943.19" rx="1" ry="1.45" transform="translate(-672.77 -1812.76) rotate(-14.75)"/><path class="cls-102" d="M234.18,1939.66a6.56,6.56,0,0,1-1.31-.13c-2.07-.52-2.68.11-2.69,0.12l-0.21-.18s0.71-.78,3-0.21c0,0,3.66.81,4.59-1.85l0.26,0.09A3.5,3.5,0,0,1,234.18,1939.66Z" transform="translate(-185.53 -1934.83)"/><path class="cls-102" d="M233.53,1939.61l-0.12-.25c1.47-.68,1.43-2.85,1.43-2.87h0.28C235.12,1936.57,235.17,1938.85,233.53,1939.61Z" transform="translate(-185.53 -1934.83)"/><path class="cls-102" d="M237.47,1940.83a7.5,7.5,0,0,1-2.28-1.32l0.2-.2a7.36,7.36,0,0,0,2.17,1.25Z" transform="translate(-185.53 -1934.83)"/><path class="cls-102" d="M224.86,1940.15a20.36,20.36,0,0,0-1.29-1.64c-1-1.19-3.54-.46-3.56-0.45l-0.08-.27c0.11,0,2.72-.79,3.85.53a20.16,20.16,0,0,1,1.32,1.67Z" transform="translate(-185.53 -1934.83)"/><path class="cls-102" d="M222.92,1937.89a12.64,12.64,0,0,1,.22-3.07l0.27,0.07a12.7,12.7,0,0,0-.21,3h-0.28Z" transform="translate(-185.53 -1934.83)"/><path class="cls-102" d="M224.47,1939.17l-0.22-.18c0-.06.38-0.65,0.67-1.17l0.24,0.14C225.07,1938.14,224.55,1939.07,224.47,1939.17Z" transform="translate(-185.53 -1934.83)"/><path class="cls-102" d="M236.79,1945.82a1.24,1.24,0,0,1-.52-0.11,1,1,0,0,1-.54-0.56,0.62,0.62,0,0,0-.61-0.4,2.7,2.7,0,0,1-2.06-.62,3.39,3.39,0,0,0-2.15-.8V1943a3.64,3.64,0,0,1,2.35.88,2.46,2.46,0,0,0,1.84.55,0.89,0.89,0,0,1,.9.57,0.75,0.75,0,0,0,.4.42,1.54,1.54,0,0,0,1.21-.12l0.11,0.26A2.4,2.4,0,0,1,236.79,1945.82Z" transform="translate(-185.53 -1934.83)"/><path class="cls-102" d="M232.34,1943.62v-0.28a1.87,1.87,0,0,0,1.79-1l0.26,0.11A2.13,2.13,0,0,1,232.34,1943.62Z" transform="translate(-185.53 -1934.83)"/><path class="cls-102" d="M234.69,1944.72l-0.16-.23a10,10,0,0,0,1.82-2l0.23,0.16A10.06,10.06,0,0,1,234.69,1944.72Z" transform="translate(-185.53 -1934.83)"/><path class="cls-102" d="M220.69,1943.49a1.29,1.29,0,0,1-.94-0.3,15.79,15.79,0,0,0-4-2.06l0.09-.27a15.74,15.74,0,0,1,4.12,2.12s0.52,0.5,1.87,0c0,0,.92-0.37,1.39-0.64l0.14,0.24c-0.49.28-1.39,0.64-1.43,0.66A3.45,3.45,0,0,1,220.69,1943.49Z" transform="translate(-185.53 -1934.83)"/><path class="cls-102" d="M218.51,1942.14h-0.28c0-.72,0-2.35,0-2.37h0.28S218.52,1941.41,218.51,1942.14Z" transform="translate(-185.53 -1934.83)"/><path class="cls-102" d="M216.62,1943.69l-0.13-.25a4.72,4.72,0,0,1,2.19-.4,2.25,2.25,0,0,0,1-.17l0.16,0.23a2.52,2.52,0,0,1-1.14.22A4.6,4.6,0,0,0,216.62,1943.69Z" transform="translate(-185.53 -1934.83)"/><path class="cls-102" d="M222.14,1950.61c0-.89,0-2.06,0-2.08a4.12,4.12,0,0,1,2.76-3.28l0.08,0.27a3.83,3.83,0,0,0-2.56,3s0,1.16,0,2h-0.28Z" transform="translate(-185.53 -1934.83)"/><path class="cls-102" d="M221.38,1947H221.3v-0.28a4.24,4.24,0,0,0,1.81-.35l0.14,0.24A4.26,4.26,0,0,1,221.38,1947Z" transform="translate(-185.53 -1934.83)"/><path class="cls-102" d="M223.91,1948.68s-0.06-2,0-2.83h0.28c0,0.79,0,2.8,0,2.82h-0.28Z" transform="translate(-185.53 -1934.83)"/><path d="M249.27,1980v-9.6h1.59l3.31,6.41v-6.41h1.52v9.6h-1.64l-3.26-6.26V1980h-1.52Z" transform="translate(-185.53 -1934.83)"/><path d="M259.24,1980v-8h-2.4v-1.62h6.43V1972h-2.39v8h-1.63Z" transform="translate(-185.53 -1934.83)"/><path d="M264.31,1970.4h1.63v5.2a12.77,12.77,0,0,0,.06,1.6,1.61,1.61,0,0,0,.5.95,1.55,1.55,0,0,0,1.08.36,1.46,1.46,0,0,0,1-.34,1.39,1.39,0,0,0,.42-0.83,12.81,12.81,0,0,0,.07-1.63v-5.31h1.63v5a15.34,15.34,0,0,1-.13,2.44,2.94,2.94,0,0,1-.49,1.21,2.51,2.51,0,0,1-1,.78,3.55,3.55,0,0,1-1.56.29,3.85,3.85,0,0,1-1.76-.32,2.59,2.59,0,0,1-.95-0.83,2.86,2.86,0,0,1-.46-1.06,13.79,13.79,0,0,1-.16-2.44v-5.12Z" transform="translate(-185.53 -1934.83)"/><path d="M275.63,1980v-9.6h1.59l3.31,6.41v-6.41H282v9.6h-1.64l-3.26-6.26V1980h-1.52Z" transform="translate(-185.53 -1934.83)"/><path d="M283.77,1980v-9.6h6V1972H285.4v2.13h4.06v1.62H285.4v2.61h4.52V1980h-6.15Z" transform="translate(-185.53 -1934.83)"/><path d="M291.3,1970.4h1.63v5.2a12.77,12.77,0,0,0,.06,1.6,1.61,1.61,0,0,0,.5.95,1.55,1.55,0,0,0,1.08.36,1.46,1.46,0,0,0,1-.34,1.39,1.39,0,0,0,.42-0.83,12.81,12.81,0,0,0,.07-1.63v-5.31h1.63v5a15.34,15.34,0,0,1-.13,2.44,2.94,2.94,0,0,1-.49,1.21,2.51,2.51,0,0,1-1,.78,3.55,3.55,0,0,1-1.56.29,3.85,3.85,0,0,1-1.76-.32,2.59,2.59,0,0,1-.95-0.83,2.86,2.86,0,0,1-.46-1.06,13.79,13.79,0,0,1-.16-2.44v-5.12Z" transform="translate(-185.53 -1934.83)"/><path d="M299.47,1980v-9.6h3.44a5,5,0,0,1,1.88.26,2,2,0,0,1,.94.92,3.16,3.16,0,0,1,.35,1.51,2.87,2.87,0,0,1-.54,1.78,2.43,2.43,0,0,1-1.6.89,4,4,0,0,1,.87.81,11.12,11.12,0,0,1,.93,1.56l1,1.87h-2l-1.18-2.09a13.7,13.7,0,0,0-.86-1.41,1.27,1.27,0,0,0-.49-0.4,2.29,2.29,0,0,0-.82-0.11H301.1v4h-1.63Zm1.63-5.54h1.21a5.28,5.28,0,0,0,1.47-.12,0.91,0.91,0,0,0,.46-0.41,1.43,1.43,0,0,0,.17-0.72,1.3,1.3,0,0,0-.22-0.78,1,1,0,0,0-.62-0.38,11.59,11.59,0,0,0-1.19,0H301.1v2.44Z" transform="translate(-185.53 -1934.83)"/><path d="M307.29,1975.26a7.13,7.13,0,0,1,.37-2.46,4.63,4.63,0,0,1,.75-1.32,3.2,3.2,0,0,1,1-.86,3.83,3.83,0,0,1,1.74-.38,3.5,3.5,0,0,1,2.86,1.32,6.77,6.77,0,0,1,0,7.3,3.77,3.77,0,0,1-5.71,0A5.54,5.54,0,0,1,307.29,1975.26Zm1.68-.07a4.07,4.07,0,0,0,.63,2.47,2,2,0,0,0,3.21,0,4.15,4.15,0,0,0,.63-2.51,4.09,4.09,0,0,0-.61-2.46,2,2,0,0,0-3.25,0A4.11,4.11,0,0,0,309,1975.19Z" transform="translate(-185.53 -1934.83)"/><path d="M316,1976.88l1.59-.18a2.47,2.47,0,0,0,.58,1.4,1.59,1.59,0,0,0,1.18.45,1.62,1.62,0,0,0,1.19-.4,1.26,1.26,0,0,0,.4-0.93,1,1,0,0,0-.17-0.58,1.33,1.33,0,0,0-.59-0.42q-0.29-.12-1.31-0.42a4.14,4.14,0,0,1-1.84-.95,2.72,2.72,0,0,1-.74-1.93,2.81,2.81,0,0,1,.35-1.37,2.32,2.32,0,0,1,1-1,3.49,3.49,0,0,1,1.59-.33,2.77,2.77,0,0,1,3.1,2.91l-1.63.09a1.77,1.77,0,0,0-.45-1.06,1.46,1.46,0,0,0-1-.32,1.65,1.65,0,0,0-1.11.35,0.75,0.75,0,0,0-.26.6,0.79,0.79,0,0,0,.24.58,3.91,3.91,0,0,0,1.5.64,7.1,7.1,0,0,1,1.76.69,2.48,2.48,0,0,1,.89,1,3.28,3.28,0,0,1,.32,1.53,3.22,3.22,0,0,1-.39,1.55,2.46,2.46,0,0,1-1.09,1.07,3.94,3.94,0,0,1-1.76.35,3.14,3.14,0,0,1-2.36-.84A4,4,0,0,1,316,1976.88Z" transform="translate(-185.53 -1934.83)"/><path d="M329.12,1976.47l1.58,0.6a4.38,4.38,0,0,1-1.21,2.33,3.09,3.09,0,0,1-2.15.76,3.24,3.24,0,0,1-2.65-1.31,5.6,5.6,0,0,1-1-3.57,5.89,5.89,0,0,1,1-3.72,3.32,3.32,0,0,1,2.74-1.33,3.08,3.08,0,0,1,2.41,1,4,4,0,0,1,.83,1.77l-1.62.46a2.13,2.13,0,0,0-.6-1.18,1.55,1.55,0,0,0-1.11-.43,1.73,1.73,0,0,0-1.46.77,4.28,4.28,0,0,0-.56,2.48,4.6,4.6,0,0,0,.55,2.59,1.69,1.69,0,0,0,1.43.77,1.49,1.49,0,0,0,1.12-.49A3.05,3.05,0,0,0,329.12,1976.47Z" transform="translate(-185.53 -1934.83)"/><path d="M332.06,1980v-9.6h1.63v9.6h-1.63Z" transform="translate(-185.53 -1934.83)"/><path d="M335.24,1980v-9.6h6V1972h-4.36v2.13h4.06v1.62h-4.06v2.61h4.52V1980h-6.15Z" transform="translate(-185.53 -1934.83)"/><path d="M342.8,1980v-9.6h1.59l3.31,6.41v-6.41h1.52v9.6h-1.64l-3.26-6.26V1980H342.8Z" transform="translate(-185.53 -1934.83)"/><path d="M356.11,1976.47l1.58,0.6a4.38,4.38,0,0,1-1.21,2.33,3.09,3.09,0,0,1-2.15.76,3.24,3.24,0,0,1-2.65-1.31,5.6,5.6,0,0,1-1-3.57,5.89,5.89,0,0,1,1-3.72,3.32,3.32,0,0,1,2.74-1.33,3.08,3.08,0,0,1,2.41,1,4,4,0,0,1,.83,1.77l-1.62.46a2.13,2.13,0,0,0-.6-1.18,1.55,1.55,0,0,0-1.11-.43,1.73,1.73,0,0,0-1.46.77,4.28,4.28,0,0,0-.56,2.48,4.6,4.6,0,0,0,.55,2.59,1.69,1.69,0,0,0,1.43.77,1.49,1.49,0,0,0,1.12-.49A3.05,3.05,0,0,0,356.11,1976.47Z" transform="translate(-185.53 -1934.83)"/><path d="M359.1,1980v-9.6h6V1972h-4.36v2.13h4.06v1.62h-4.06v2.61h4.52V1980H359.1Z" transform="translate(-185.53 -1934.83)"/><ellipse class="cls-102" cx="9.72" cy="24.39" rx="0.73" ry="0.61"/><ellipse class="cls-102" cx="199.78" cy="1958.33" rx="0.52" ry="0.73" transform="translate(-948.77 -1693.34) rotate(-23.46)"/><ellipse class="cls-102" cx="201.72" cy="1960.33" rx="0.51" ry="0.37" transform="translate(-1953.4 91.21) rotate(-86.04)"/><ellipse class="cls-102" cx="203.72" cy="1961.14" rx="0.39" ry="0.54" transform="translate(-654.19 -1827.19) rotate(-14.01)"/><ellipse class="cls-102" cx="205.29" cy="1958.74" rx="0.45" ry="0.55" transform="translate(-716.9 -1802.6) rotate(-15.98)"/><ellipse class="cls-102" cx="198.95" cy="1960.59" rx="0.54" ry="0.63" transform="matrix(0.14, -0.99, 0.99, 0.14, -1955.68, -52.71)"/><ellipse class="cls-102" cx="200.59" cy="1961.46" rx="0.43" ry="0.45" transform="translate(-1955.13 -50.34) rotate(-81.92)"/><path class="cls-102" d="M205.89,1963c-0.88,0-1.73,0-1.78-.05-1.85-.15-6.55-0.21-6.6-0.21a2.46,2.46,0,0,1-1.89-.82,3.22,3.22,0,0,1-.58-2.28l0.42,0.06a2.84,2.84,0,0,0,.49,2,2.06,2.06,0,0,0,1.57.67s4.75,0.06,6.62.21a24.32,24.32,0,0,0,3,0l0.09,0v0c-1.89-2-2-3.4-2-3.46l0.42,0a5.94,5.94,0,0,0,1.91,3.22l0,0.06a0.52,0.52,0,0,1,0,.45,0.47,0.47,0,0,1-.41.22C206.81,1963,206.34,1963,205.89,1963Z" transform="translate(-185.53 -1934.83)"/><path class="cls-102" d="M206.55,1961.68a19.36,19.36,0,0,1-6.54-2.77l0.26-.33a19.4,19.4,0,0,0,6.39,2.69Z" transform="translate(-185.53 -1934.83)"/><path class="cls-102" d="M207.41,1962.85c-3.58-.3-3.81-1.14-3.79-1.4H204s0.17,0.71,3.41,1Z" transform="translate(-185.53 -1934.83)"/><path class="cls-102" d="M202.39,1962.78a2.44,2.44,0,0,1-.87-2.5l0.4,0.12a2,2,0,0,0,.73,2.06Z" transform="translate(-185.53 -1934.83)"/><path class="cls-102" d="M200.78,1962.75a0.91,0.91,0,0,1-.39-1l0.41,0.08a0.56,0.56,0,0,0,.16.55Z" transform="translate(-185.53 -1934.83)"/><path class="cls-102" d="M202.18,1963.57a3.71,3.71,0,0,1-3.07-1.06,2,2,0,0,1-.36-1.65l0.41,0.1a1.64,1.64,0,0,0,.29,1.29,3.35,3.35,0,0,0,2.73.89,21.56,21.56,0,0,0,5.18-.71l0.15,0.39A21.44,21.44,0,0,1,202.18,1963.57Z" transform="translate(-185.53 -1934.83)"/><path d="M229.68,1959.77l-0.28,0a5.66,5.66,0,0,0-.41-3.85l0.23-.16A5.8,5.8,0,0,1,229.68,1959.77Z" transform="translate(-185.53 -1934.83)"/><path d="M227.09,1957.91l-0.08-.27a9.56,9.56,0,0,1,2.61-.46l0,0.28A9.77,9.77,0,0,0,227.09,1957.91Z" transform="translate(-185.53 -1934.83)"/><path d="M229.95,1963.91a5.91,5.91,0,0,1-1-.09c-1.2-.46-1-2.78-1-2.88a1,1,0,0,0-.32-0.78,1.15,1.15,0,0,0-.88-0.12,4,4,0,0,1-1.25,0,1.36,1.36,0,0,1-1-1,1.87,1.87,0,0,1,.73-1.41,1.38,1.38,0,0,0-.08-1.9l0.2-.19a1.68,1.68,0,0,1,.07,2.29,1.66,1.66,0,0,0-.64,1.16,1.09,1.09,0,0,0,.76.75,4.62,4.62,0,0,0,.46,0,5.59,5.59,0,0,0,.65,0,1.41,1.41,0,0,1,1.1.17,1.22,1.22,0,0,1,.43,1s-0.19,2.22.8,2.6a7.31,7.31,0,0,0,.94.07,4.18,4.18,0,0,0,.85-0.08,1,1,0,0,0,.64-0.87,13.31,13.31,0,0,1,.17-2.12l0.27,0.08a13.93,13.93,0,0,0-.16,2.06,1.26,1.26,0,0,1-.85,1.11A4.49,4.49,0,0,1,229.95,1963.91Z" transform="translate(-185.53 -1934.83)"/><path d="M227.86,1966.74l-0.17-.22a3.18,3.18,0,0,0,1.28-2.63l0.28,0A3.4,3.4,0,0,1,227.86,1966.74Z" transform="translate(-185.53 -1934.83)"/><path d="M224.21,1966.28c0-2.25-1.32-2.51-1.38-2.52-1.28-.15-2.24-1.84-2.28-1.91a9.68,9.68,0,0,0-1.21-1.93c-0.83-1-3.73-1.45-3.76-1.45l0-.28c0.12,0,3,.44,3.94,1.55a9.7,9.7,0,0,1,1.25,2h0s0.92,1.62,2.07,1.75c0.07,0,1.57.31,1.62,2.79h-0.28Z" transform="translate(-185.53 -1934.83)"/><path d="M218.87,1959.38l-0.21-.19a7.9,7.9,0,0,1,2-1.27l0.11,0.26A7.81,7.81,0,0,0,218.87,1959.38Z" transform="translate(-185.53 -1934.83)"/><path d="M217.64,1965.35l-0.19-.2a11.52,11.52,0,0,1,2-1.4,2.06,2.06,0,0,0,1.12-1.62h0.28a2.34,2.34,0,0,1-1.26,1.86A11.48,11.48,0,0,0,217.64,1965.35Z" transform="translate(-185.53 -1934.83)"/><path d="M222.64,1963.65l-0.19-.2a6.22,6.22,0,0,1,2.39-1.45l0,0.28A6.12,6.12,0,0,0,222.64,1963.65Z" transform="translate(-185.53 -1934.83)"/><path d="M223.13,1969.66l-0.27-.06c0.26-1.19-1.94-2.47-2-2.48a1,1,0,0,1-.42-0.8,1.58,1.58,0,0,1,.54-1l0.18,0.21a1.32,1.32,0,0,0-.44.82,0.76,0.76,0,0,0,.3.57C221.13,1966.93,223.43,1968.27,223.13,1969.66Z" transform="translate(-185.53 -1934.83)"/><path d="M215.77,1978.39c-0.19-2.38,3-3.92,3.13-4a6.32,6.32,0,0,0,2.4-2.68,6.33,6.33,0,0,1,4.78-3.37v0.28a6,6,0,0,0-4.55,3.22,6.48,6.48,0,0,1-2.53,2.81s-3.15,1.53-3,3.71Z" transform="translate(-185.53 -1934.83)"/><path d="M222.47,1973.87A2.14,2.14,0,0,0,221,1973l0-.28a2.38,2.38,0,0,1,1.71,1Z" transform="translate(-185.53 -1934.83)"/><path d="M221.18,1971.92a14,14,0,0,0-1.6-2.19l0.21-.19a14,14,0,0,1,1.64,2.24Z" transform="translate(-185.53 -1934.83)"/><path d="M218,1975c-0.93-.73-4-0.81-4.07-0.81v-0.28c0.13,0,3.24.08,4.24,0.87Z" transform="translate(-185.53 -1934.83)"/><path d="M211.83,1965.62l-0.16-.23a6.82,6.82,0,0,1,1.85-.85,6.78,6.78,0,0,0,1.58-.66,1.15,1.15,0,0,0,.59-0.92,1.85,1.85,0,0,0-.85-1.17c-1.73-1.11-1.44-2.25-1.43-2.3l0.27,0.07-0.13,0,0.14,0s-0.24,1,1.31,2a2.1,2.1,0,0,1,1,1.4,1.41,1.41,0,0,1-.71,1.16,6.86,6.86,0,0,1-1.66.7A6.58,6.58,0,0,0,211.83,1965.62Z" transform="translate(-185.53 -1934.83)"/><path d="M215.61,1972.28l0-.28a5,5,0,0,0,2-.66,0.83,0.83,0,0,0,.49-0.93,8.17,8.17,0,0,0-1.25-1.94,0.38,0.38,0,0,0-.25-0.21,0.39,0.39,0,0,0-.27.11,1.9,1.9,0,0,1-1.17.38c-1.11.13-2-1.51-2-1.58A0.25,0.25,0,0,0,213,1967a0.64,0.64,0,0,0-.43.14,7.4,7.4,0,0,1-1.24.76,2.07,2.07,0,0,1-1.79-.76,1.08,1.08,0,0,1-.26-0.84,2.1,2.1,0,0,1,.8-1.21,7.72,7.72,0,0,0,.84-0.84,0.88,0.88,0,0,0,.18-0.8,1.63,1.63,0,0,0-1-.76l0.08-.27a1.88,1.88,0,0,1,1.16.93,1.14,1.14,0,0,1-.22,1.06,7.76,7.76,0,0,1-.88.89,1.86,1.86,0,0,0-.7,1,0.79,0.79,0,0,0,.2.62,1.84,1.84,0,0,0,1.48.68h0a7.6,7.6,0,0,0,1.16-.72,0.92,0.92,0,0,1,.66-0.2,0.53,0.53,0,0,1,.36.27s0.83,1.54,1.77,1.43h0a1.62,1.62,0,0,0,1-.3,0.65,0.65,0,0,1,.49-0.18,0.61,0.61,0,0,1,.44.32,8.12,8.12,0,0,1,1.29,2,1.09,1.09,0,0,1-.6,1.26A5.18,5.18,0,0,1,215.61,1972.28Z" transform="translate(-185.53 -1934.83)"/><path d="M213.89,1978.28a1.34,1.34,0,0,1-1.22-1.29,17.61,17.61,0,0,0-.12-1.76,1.51,1.51,0,0,0-1.6-1.19c-0.79,0-1.41,0-1.41,0a0.91,0.91,0,0,1-.66-0.25,1.49,1.49,0,0,1-.37-0.95,11.36,11.36,0,0,0-.17-1.7,3.25,3.25,0,0,0-2-2l0.09-.26a3.47,3.47,0,0,1,2.17,2.22,11.41,11.41,0,0,1,.18,1.75,0.86,0.86,0,0,0,.75.92s0.62,0,1.4,0a1.82,1.82,0,0,1,1.89,1.42,17.27,17.27,0,0,1,.13,1.8,1.07,1.07,0,0,0,1,1Z" transform="translate(-185.53 -1934.83)"/><path d="M213.15,1972.44h0a1.16,1.16,0,0,1-.59-0.8c-0.66-1.27-1.38-1.18-1.38-1.18h-0.05a4.5,4.5,0,0,0-2.36.77l-0.15-.24a4.74,4.74,0,0,1,2.55-.81c0.16,0,1,0,1.66,1.35a1.15,1.15,0,0,0,.37.62,0.15,0.15,0,0,0,.1-0.1c0.05-.07,1.1-1.4,1.58-1.87l0.2,0.2c-0.46.45-1.53,1.82-1.54,1.83A0.39,0.39,0,0,1,213.15,1972.44Z" transform="translate(-185.53 -1934.83)"/><path d="M206.46,1974.83l-0.13-.25a6.22,6.22,0,0,0,2.08-1.91l0.24,0.15A6.4,6.4,0,0,1,206.46,1974.83Z" transform="translate(-185.53 -1934.83)"/><path d="M207.94,1978.49l-0.16-.23a7.12,7.12,0,0,0,2.1-2.32l0.25,0.13A7.29,7.29,0,0,1,207.94,1978.49Z" transform="translate(-185.53 -1934.83)"/><path d="M217,1980.11l-0.11-.26c0.42-.17,1.51-0.74,1.58-1.26a4,4,0,0,1,.37-1.24,1.2,1.2,0,0,1,.68-0.58,0.83,0.83,0,0,1,.7.17,2.82,2.82,0,0,1,1.25,1.9l-0.28,0a2.59,2.59,0,0,0-1.12-1.7,0.56,0.56,0,0,0-.47-0.13,0.94,0.94,0,0,0-.5.44,3.79,3.79,0,0,0-.34,1.14C218.64,1979.4,217.16,1980,217,1980.11Z" transform="translate(-185.53 -1934.83)"/><path d="M220,1981.07a4.13,4.13,0,0,0-.42-1.48l0.25-.13a4.35,4.35,0,0,1,.45,1.6H220Z" transform="translate(-185.53 -1934.83)"/><path d="M222.17,1981l-0.1-.26A2.86,2.86,0,0,0,224,1979a2.61,2.61,0,0,0-.1-2.06,3.2,3.2,0,0,0-1.74-1.36l0.08-.27a3.43,3.43,0,0,1,1.9,1.5,2.86,2.86,0,0,1,.13,2.27S224,1980.22,222.17,1981Z" transform="translate(-185.53 -1934.83)"/><path d="M230.16,1977c-0.67-.18-2-0.47-2-0.47a0.87,0.87,0,0,1-.62-0.81,6.56,6.56,0,0,0-.5-1.88,3.69,3.69,0,0,0-3.19-2.43v-0.28a4,4,0,0,1,3.44,2.6,6.72,6.72,0,0,1,.52,2,0.6,0.6,0,0,0,.42.56h0s1.3,0.29,2,.47Z" transform="translate(-185.53 -1934.83)"/><path d="M225,1976a7.44,7.44,0,0,1-.85-1.16,1,1,0,0,1,0-.84,1,1,0,0,1,.53-0.46,11,11,0,0,1,1.75-.75l0.08,0.27a11.11,11.11,0,0,0-1.72.74,0.72,0.72,0,0,0-.39.33,0.76,0.76,0,0,0,0,.6h0a7.57,7.57,0,0,0,.8,1.09Z" transform="translate(-185.53 -1934.83)"/><path d="M227.29,1978.58H227a2,2,0,0,0-.6-1.46l0.19-.21A2.29,2.29,0,0,1,227.29,1978.58Z" transform="translate(-185.53 -1934.83)"/><path d="M227.63,1974.85l0-.28a4.31,4.31,0,0,0,1.88-.59l0.17,0.22A4.51,4.51,0,0,1,227.63,1974.85Z" transform="translate(-185.53 -1934.83)"/><path d="M230.81,1972.46a2.13,2.13,0,0,1-.72-0.13c-1.5-.53-2.34-2.56-2.38-2.65l0.26-.11s0.83,2,2.21,2.49a2,2,0,0,0,1.66-.18,1.55,1.55,0,0,0,.7-0.78,1.08,1.08,0,0,0-.11-0.85h0a20.22,20.22,0,0,0-1.81-2.1l0.2-.19a19.39,19.39,0,0,1,1.85,2.15,1.36,1.36,0,0,1,.13,1.08,1.81,1.81,0,0,1-.83.95A2.43,2.43,0,0,1,230.81,1972.46Z" transform="translate(-185.53 -1934.83)"/><path d="M233.35,1975.64a10.22,10.22,0,0,0-1.12-3.73l0.25-.13a10.3,10.3,0,0,1,1.15,3.85h-0.28Z" transform="translate(-185.53 -1934.83)"/><path d="M233.9,1966.55a3.81,3.81,0,0,1-.62-0.06l0-.28a2.17,2.17,0,0,0,1,0,1.34,1.34,0,0,0,.68-0.86c0.11-1-1.26-1.34-1.27-1.35l0.06-.27a1.72,1.72,0,0,1,1.48,1.67,1.6,1.6,0,0,1-.86,1.08A1.46,1.46,0,0,1,233.9,1966.55Z" transform="translate(-185.53 -1934.83)"/><path d="M238.44,1973.53h-0.28a4.59,4.59,0,0,0-2.24-3.76,2.6,2.6,0,0,1-1-1.21,5.8,5.8,0,0,0-.69-1.94l0.24-.15a5.89,5.89,0,0,1,.72,2h0a2.38,2.38,0,0,0,.88,1S238.55,1971,238.44,1973.53Z" transform="translate(-185.53 -1934.83)"/><path d="M234.73,1972.13h-0.38v-0.28a4.68,4.68,0,0,0,3.05-.65l0.18,0.21A4.56,4.56,0,0,1,234.73,1972.13Z" transform="translate(-185.53 -1934.83)"/><path d="M235,1962.72l-0.09-.26a3,3,0,0,0,1.75-1.43c0.25-1-1-2.32-1-2.33l0.2-.2c0.06,0.06,1.38,1.4,1.09,2.61A3.21,3.21,0,0,1,235,1962.72Z" transform="translate(-185.53 -1934.83)"/><path d="M236.45,1961.25a6.63,6.63,0,0,0-4-2.05l0-.28a6.8,6.8,0,0,1,4.17,2.15Z" transform="translate(-185.53 -1934.83)"/><path d="M240.29,1969h-0.05a0.72,0.72,0,0,1-.43-0.32,21.32,21.32,0,0,0-1.18-2.28,0.71,0.71,0,0,1-.08-0.85,6.32,6.32,0,0,1,.76-0.88l0.18,0.18a6,6,0,0,0-.72.82,0.48,0.48,0,0,0,.06.58,21,21,0,0,1,1.2,2.31,0.49,0.49,0,0,0,.24.19,0.13,0.13,0,0,0,.11,0l0,0a0.88,0.88,0,0,0,.56-0.79,6.5,6.5,0,0,0,.11-2l0.25,0a6.56,6.56,0,0,1-.11,2.05,1.13,1.13,0,0,1-.71,1A0.39,0.39,0,0,1,240.29,1969Z" transform="translate(-185.53 -1934.83)"/><path d="M241.52,1971.85a14.62,14.62,0,0,1-1.42-.65l0.12-.23a14.85,14.85,0,0,0,1.39.64Z" transform="translate(-185.53 -1934.83)"/><path class="cls-102" d="M220.18,1981.34h0a4.7,4.7,0,0,1-4.73-3,0.58,0.58,0,0,0-.52-0.35,1.5,1.5,0,0,0-.84.4,5.17,5.17,0,0,1-3.36,1.31,5.36,5.36,0,0,1-3-1c-6.16-5,.76-14.74.83-14.84a23,23,0,0,1,17.11-8.65h0.15c12.09,0.28,14.69,8.93,14.71,9,1.24,4.16.8,6.19,0.79,6.27-0.62,3.41-6.39,5-6.64,5.07a26.92,26.92,0,0,0-7.08,3.21,15,15,0,0,1-6.35,2.5A8.24,8.24,0,0,1,220.18,1981.34Zm-5.25-4a1.14,1.14,0,0,1,1,.66l0,0.06a4.07,4.07,0,0,0,4.2,2.67h0a7.69,7.69,0,0,0,1-.07,14.66,14.66,0,0,0,6.1-2.4,27,27,0,0,1,7.25-3.29c0.06,0,5.68-1.57,6.24-4.64,0,0,.42-2-0.77-6a11.19,11.19,0,0,0-2.67-4.21c-1.89-1.93-5.42-4.26-11.52-4.4h-0.13a22.39,22.39,0,0,0-16.66,8.43c-0.06.08-6.67,9.44-.93,14.06a4.88,4.88,0,0,0,2.67.84,4.62,4.62,0,0,0,3-1.17A2,2,0,0,1,214.93,1977.39Z" transform="translate(-185.53 -1934.83)"/><path d="M248.67,1957.43l-0.21-.68a11.6,11.6,0,0,0,3.3-4.36h-3v-0.64h3.69v0.57A9.74,9.74,0,0,1,251,1955v0.1a10.57,10.57,0,0,1,1.72,1.44l-0.36.56a9.23,9.23,0,0,0-1.36-1.29v5.42h-0.66v-5.42A19.4,19.4,0,0,1,248.67,1957.43Zm2.6-6-0.58.21A12.19,12.19,0,0,0,250,1950l0.63-.17A9.8,9.8,0,0,1,251.27,1951.46Zm5.26,6.13v3.58h-0.66v-3.58h-2v0.73h-0.66v-6.45h2.69v-2h0.66v2h2.71v6.44h-0.66v-0.72h-2.05Zm-0.66-5.09h-2v1.92h2v-1.92Zm-2,4.46h2V1955h-2V1957Zm4.74-4.46h-2.05v1.92h2.05v-1.92Zm-2.05,4.46h2.05V1955h-2.05V1957Z" transform="translate(-185.53 -1934.83)"/><path d="M266,1957.27l-0.56.12-0.2-.73a24,24,0,0,1-3.35.72l-0.17-.61a0.87,0.87,0,0,0,.3-0.19,14.76,14.76,0,0,0,1.84-2.55c-0.71.12-1.4,0.22-2.09,0.32l-0.16-.59a0.64,0.64,0,0,0,.27-0.25,18.28,18.28,0,0,0,1.7-3.63l0.62,0.25a17.8,17.8,0,0,1-1.84,3.58c0.62-.07,1.24-0.16,1.86-0.28q0.48-.85,1-1.86l0.61,0.23a27.27,27.27,0,0,1-3.16,4.88,17.91,17.91,0,0,0,2.41-.54c-0.12-.4-0.27-0.77-0.42-1.14l0.53-.17A18.07,18.07,0,0,1,266,1957.27Zm-3.27.89a13.22,13.22,0,0,1-.48,2.86l-0.62-.19a11.08,11.08,0,0,0,.51-2.75Zm1.77,2.29-0.61.14c-0.11-.93-0.24-1.75-0.38-2.46l0.56-.14C264.25,1958.75,264.4,1959.56,264.53,1960.45Zm1.56-.67-0.57.14a19.44,19.44,0,0,0-.54-2l0.53-.17A17.87,17.87,0,0,1,266.09,1959.79Zm1.91-8a11.27,11.27,0,0,1-1.23,2.08,11.61,11.61,0,0,1,1.32,2.05l-0.54.32a13.77,13.77,0,0,0-1.45-2.38,11.48,11.48,0,0,0,1.32-2.31Zm-1.39,5.59v-0.62h5.9v0.62h-2.65v2.83h3v0.62h-6.76v-0.62h3.09v-2.83h-2.62Zm6.15-7v0.63h-6.41v-0.63h6.41Zm-2.49,1.4a11.13,11.13,0,0,1-1.2,2.05,11.59,11.59,0,0,1,1.32,2l-0.54.32a12.65,12.65,0,0,0-1.44-2.34,10.57,10.57,0,0,0,1.29-2.29Zm2.36,0a12.51,12.51,0,0,1-1.25,2,11.54,11.54,0,0,1,1.35,2l-0.56.32a13.38,13.38,0,0,0-1.45-2.34,10.9,10.9,0,0,0,1.32-2.28Z" transform="translate(-185.53 -1934.83)"/><path d="M275.18,1955.83l-0.45-.54a9.83,9.83,0,0,0,2.44-5.06l0.68,0.14a16.59,16.59,0,0,1-.54,2h2.95V1950h0.66v2.31h4.17V1953h-4.17v3.11h3.92v0.66h-3.92v3.38h5v0.67H275v-0.67h5.22v-3.38h-3.72v-0.66h3.72V1953h-3.19A9.18,9.18,0,0,1,275.18,1955.83Z" transform="translate(-185.53 -1934.83)"/><path d="M288.38,1955.1l-0.58-.16a12.69,12.69,0,0,0,.9-4.16l0.61,0a13.39,13.39,0,0,1-.2,1.76h1v-2.65h0.67v2.65H292v0.64h-1.14v3.24c0.37-.17.73-0.36,1.09-0.56v0.63c-0.37.2-.73,0.38-1.09,0.56v4.1h-0.67v-3.79c-0.67.28-1.36,0.54-2.05,0.77l-0.16-.66a17.22,17.22,0,0,0,2.22-.74v-3.55H289A12.32,12.32,0,0,1,288.38,1955.1Zm5.88-5a15.87,15.87,0,0,1-.51,1.92h4.88q0,6-.17,7.46a1.74,1.74,0,0,1-2,1.67l-0.92,0-0.15-.61q0.58,0,1,0a1.3,1.3,0,0,0,1.4-1.26c0.09-.77.14-3,0.16-6.62h-1.05a20.52,20.52,0,0,1-1.15,5,10.27,10.27,0,0,1-2.52,3.45l-0.42-.52a9.49,9.49,0,0,0,2.35-3.17,17.28,17.28,0,0,0,1.13-4.76h-1.14a10,10,0,0,1-2.86,5.94l-0.43-.49a9.15,9.15,0,0,0,2.69-5.45h-1.05a8.24,8.24,0,0,1-1.15,2l-0.49-.42a9.61,9.61,0,0,0,1.74-4.33Z" transform="translate(-185.53 -1934.83)"/><path d="M305.92,1953.35h2.29v4.32h2.13l0.07-1.73h-1.47v-0.64h1.5l0.09-1.68H309V1953h1.52l0.09-1.7H308.9v-0.64h2.38l-0.3,7h1.09v0.64H301.14v-0.64h1.11l-0.28-6.76a11.16,11.16,0,0,0,2.57-.78l0.26,0.61a12.73,12.73,0,0,1-2.19.68l0.07,1.55h1.94v0.63h-1.91l0.07,1.67h1.74v0.64h-1.71l0.09,1.76h2.49v-2.9H306v2.9h1.56V1954h-2.3V1950h0.63v1.06h2.45v0.62h-2.45v1.62Zm-0.53,5.73a15.4,15.4,0,0,1-3.76,2.08l-0.42-.54a15.57,15.57,0,0,0,3.69-2Zm6.73,1.56-0.37.58a18.41,18.41,0,0,0-3.85-2.1l0.35-.51A19.76,19.76,0,0,1,312.12,1960.64Z" transform="translate(-185.53 -1934.83)"/><path d="M317.87,1951.64v0.62h-3.66v-0.62h3.66Zm-0.27,8.71h-2.43V1961h-0.61v-4h3v3.4Zm-0.09-6.88V1954h-2.87v-0.57h2.87Zm0,1.72v0.58h-2.87v-0.58h2.87Zm-0.52,4.58v-2.25h-1.82v2.25H317Zm-0.43-8.44-0.58.21a9.46,9.46,0,0,0-.66-1.5l0.64-.17A9.54,9.54,0,0,1,316.56,1951.33Zm2.9,5.83a16.45,16.45,0,0,1-1,3.64l-0.53-.35a15,15,0,0,0,.92-3.42Zm0.78-5.11a7.94,7.94,0,0,1-1.34,2l-0.47-.33a8.05,8.05,0,0,0,1.3-1.91Zm-1.39-1v-0.62h5.66a16,16,0,0,1-.37,4.46,1.36,1.36,0,0,1-1.35,1,8.05,8.05,0,0,1-.87,0l-0.19-.63c0.37,0,.71,0,1,0q0.87,0,1-1.34c0.07-.88.12-1.83,0.12-2.85h-1.63c-0.37,2.67-1.51,4.34-3.43,5l-0.27-.58q2.6-.95,3.08-4.46h-2.77ZM321,1961a0.85,0.85,0,0,1-.93-1v-3.25h0.63v3.13a0.44,0.44,0,0,0,.48.51h1.27a0.64,0.64,0,0,0,.53-0.2,3.32,3.32,0,0,0,.28-1.47l0.58,0.2a3.62,3.62,0,0,1-.42,1.81,1.23,1.23,0,0,1-.87.26H321Zm1.87-2.73-0.56.24a12.22,12.22,0,0,0-1-2.05l0.57-.19A12.72,12.72,0,0,1,322.91,1958.26Zm2.59,1.66-0.56.25a21.22,21.22,0,0,0-1.32-3.21l0.58-.19A23.84,23.84,0,0,1,325.49,1959.92Z" transform="translate(-185.53 -1934.83)"/><path d="M327.92,1954.24l-0.58-.36a12.87,12.87,0,0,0,1.82-4l0.66,0.15c-0.16.57-.33,1.13-0.53,1.65H333v0.64h-1.91A25.15,25.15,0,0,1,331,1955h2.19v0.63h-2.28c-0.06.38-.14,0.74-0.21,1.08,0.82,0.84,1.66,1.79,2.51,2.86l-0.4.59a32.53,32.53,0,0,0-2.3-2.85,7.33,7.33,0,0,1-2.77,3.61l-0.43-.54a6.81,6.81,0,0,0,2.67-3.68c0.09-.35.16-0.71,0.24-1.08h-2.72V1955h2.82a25.15,25.15,0,0,0,.17-2.71H329A12.86,12.86,0,0,1,327.92,1954.24Zm9.89,6.36h-0.67v-0.84h-2.61v0.88h-0.66v-9.36h3.94v9.32Zm-0.67-1.47v-7.21h-2.61v7.21h2.61Z" transform="translate(-185.53 -1934.83)"/><path d="M342.7,1953.31v-2c-0.62.1-1.27,0.17-1.94,0.25l-0.14-.63a21.84,21.84,0,0,0,4.28-.79l0.24,0.63c-0.54.16-1.14,0.3-1.76,0.42v2.17h1.79V1954h-1.79v0.68a29.43,29.43,0,0,1,2.22,2l-0.37.56c-0.73-.83-1.35-1.48-1.84-2v5.87H342.7v-6.09a11.38,11.38,0,0,1-2.12,3.5l-0.3-.72a9.67,9.67,0,0,0,2.35-3.89h-2v-0.66h2.08Zm9,4-1.34.22v3.59h-0.67v-3.48l-4,.64-0.1-.67,4.06-.67v-7h0.67v6.93l1.23-.2Zm-3-1.82-0.48.47a16.92,16.92,0,0,0-2.38-2.09l0.47-.46A16.47,16.47,0,0,1,348.62,1955.53Zm0.32-2.95-0.46.47a15.6,15.6,0,0,0-2.34-2l0.46-.46A15.09,15.09,0,0,1,348.94,1952.58Z" transform="translate(-185.53 -1934.83)"/><path d="M362.38,1956.33v0.54c-0.84.37-1.78,0.73-2.83,1.09v0.52h5v0.57h-5v1.25a0.76,0.76,0,0,1-.88.83h-1.39l-0.16-.57,1.34,0a0.42,0.42,0,0,0,.47-0.48v-1.05h-5.2v-0.57h5.2v-0.82c1-.32,1.82-0.59,2.35-0.79h-5.67v-0.54h6.77Zm-7-2.91h1.92v0.51h-1.88l0.09,1h7.21l0.06-1h-1.87v-0.51h1.91l0.06-.92H361V1952h2l0.06-1h-2.09v-0.56h2.73l-0.28,4.47h0.92v1.89h-0.64v-1.36h-9v1.35H354v-1.88h1l-0.33-4.28a13.19,13.19,0,0,0,2.51-.59l0.22,0.53a13.77,13.77,0,0,1-2.1.52l0.09,0.94h2v0.49h-2Zm3.8-2.49a6.29,6.29,0,0,0,.8-0.82l0.42,0.25a11.26,11.26,0,0,1-.8.85q0.48,0.33.89,0.67l-0.35.36a10.38,10.38,0,0,0-.94-0.73,8.79,8.79,0,0,1-1.37.78l-0.28-.42a5.55,5.55,0,0,0,1.24-.64c-0.35-.22-0.71-0.45-1.09-0.67l0.33-.32C358.46,1950.47,358.84,1950.7,359.2,1950.94Zm0.07,2.24a7.47,7.47,0,0,0,.82-0.84l0.41,0.26a9.35,9.35,0,0,1-.8.87c0.36,0.25.68,0.48,1,.73l-0.36.35c-0.3-.25-0.63-0.51-1-0.77a8.06,8.06,0,0,1-1.36.78l-0.27-.43a5.52,5.52,0,0,0,1.2-.63,10.51,10.51,0,0,0-1-.63l0.35-.33C358.57,1952.74,358.93,1953,359.27,1953.18Z" transform="translate(-185.53 -1934.83)"/></svg>